solid OpenSCAD_Model
  facet normal 0.555626 0.831432 -0
    outer loop
      vertex 58.435 41.1734 0
      vertex 58 41.4641 22
      vertex 58.435 41.1734 22
    endloop
  endfacet
  facet normal 0.555626 0.831432 0
    outer loop
      vertex 58 41.4641 22
      vertex 58.435 41.1734 0
      vertex 58 41.4641 0
    endloop
  endfacet
  facet normal 0.442262 -0.896886 0
    outer loop
      vertex 57.5307 0.304482 0
      vertex 58 0.535898 22
      vertex 57.5307 0.304482 22
    endloop
  endfacet
  facet normal 0.442262 -0.896886 0
    outer loop
      vertex 58 0.535898 22
      vertex 57.5307 0.304482 0
      vertex 58 0.535898 0
    endloop
  endfacet
  facet normal -0.555582 0.831462 0
    outer loop
      vertex 2 41.4641 0
      vertex 1.56495 41.1734 22
      vertex 2 41.4641 22
    endloop
  endfacet
  facet normal -0.555582 0.831462 0
    outer loop
      vertex 1.56495 41.1734 22
      vertex 2 41.4641 0
      vertex 1.56495 41.1734 0
    endloop
  endfacet
  facet normal 0.0653646 0.997861 -0
    outer loop
      vertex 56.5221 41.9658 0
      vertex 56 42 22
      vertex 56.5221 41.9658 22
    endloop
  endfacet
  facet normal 0.0653646 0.997861 0
    outer loop
      vertex 56 42 22
      vertex 56.5221 41.9658 0
      vertex 56 42 0
    endloop
  endfacet
  facet normal 1 -0 0
    outer loop
      vertex 60 4 22
      vertex 60 38 0
      vertex 60 38 22
    endloop
  endfacet
  facet normal 1 0 0
    outer loop
      vertex 60 38 0
      vertex 60 4 22
      vertex 60 4 0
    endloop
  endfacet
  facet normal 0.321474 -0.946918 0
    outer loop
      vertex 57.0353 0.136296 0
      vertex 57.5307 0.304482 22
      vertex 57.0353 0.136296 22
    endloop
  endfacet
  facet normal 0.321474 -0.946918 0
    outer loop
      vertex 57.5307 0.304482 22
      vertex 57.0353 0.136296 0
      vertex 57.5307 0.304482 0
    endloop
  endfacet
  facet normal -0.997859 -0.0654009 0
    outer loop
      vertex 0.0342197 3.47789 0
      vertex 0 4 22
      vertex 0 4 0
    endloop
  endfacet
  facet normal -0.997859 -0.0654009 0
    outer loop
      vertex 0 4 22
      vertex 0.0342197 3.47789 0
      vertex 0.0342197 3.47789 22
    endloop
  endfacet
  facet normal -0.321469 0.94692 0
    outer loop
      vertex 2.96472 41.8637 0
      vertex 2.46927 41.6955 22
      vertex 2.96472 41.8637 22
    endloop
  endfacet
  facet normal -0.321469 0.94692 0
    outer loop
      vertex 2.46927 41.6955 22
      vertex 2.96472 41.8637 0
      vertex 2.46927 41.6955 0
    endloop
  endfacet
  facet normal 0.442238 0.896898 -0
    outer loop
      vertex 58 41.4641 0
      vertex 57.5307 41.6955 22
      vertex 58 41.4641 22
    endloop
  endfacet
  facet normal 0.442238 0.896898 0
    outer loop
      vertex 57.5307 41.6955 22
      vertex 58 41.4641 0
      vertex 57.5307 41.6955 0
    endloop
  endfacet
  facet normal 0.659326 -0.751857 0
    outer loop
      vertex 58.435 0.826586 0
      vertex 58.8284 1.17157 22
      vertex 58.435 0.826586 22
    endloop
  endfacet
  facet normal 0.659326 -0.751857 0
    outer loop
      vertex 58.8284 1.17157 22
      vertex 58.435 0.826586 0
      vertex 58.8284 1.17157 0
    endloop
  endfacet
  facet normal 0.997862 -0.0653634 0
    outer loop
      vertex 59.9658 3.47789 22
      vertex 60 4 0
      vertex 60 4 22
    endloop
  endfacet
  facet normal 0.997862 -0.0653634 0
    outer loop
      vertex 60 4 0
      vertex 59.9658 3.47789 22
      vertex 59.9658 3.47789 0
    endloop
  endfacet
  facet normal 0.94691 0.321498 0
    outer loop
      vertex 59.8637 39.0353 22
      vertex 59.6955 39.5307 0
      vertex 59.6955 39.5307 22
    endloop
  endfacet
  facet normal 0.94691 0.321498 0
    outer loop
      vertex 59.6955 39.5307 0
      vertex 59.8637 39.0353 22
      vertex 59.8637 39.0353 0
    endloop
  endfacet
  facet normal 0.19508 -0.980787 0
    outer loop
      vertex 56.5221 0.0342197 0
      vertex 57.0353 0.136296 22
      vertex 56.5221 0.0342197 22
    endloop
  endfacet
  facet normal 0.19508 -0.980787 0
    outer loop
      vertex 57.0353 0.136296 22
      vertex 56.5221 0.0342197 0
      vertex 57.0353 0.136296 0
    endloop
  endfacet
  facet normal 0 -1 0
    outer loop
      vertex 4 0 22
      vertex 27.5 0 20.3301
      vertex 56 0 22
    endloop
  endfacet
  facet normal 0 -1 0
    outer loop
      vertex 4 0 22
      vertex 25 0 16
      vertex 27.5 0 20.3301
    endloop
  endfacet
  facet normal 0 -1 0
    outer loop
      vertex 4 0 0
      vertex 25 0 16
      vertex 4 0 22
    endloop
  endfacet
  facet normal 0 -1 -0
    outer loop
      vertex 27.5 0 11.6699
      vertex 4 0 0
      vertex 32.5 0 11.6699
    endloop
  endfacet
  facet normal 0 -1 -0
    outer loop
      vertex 25 0 16
      vertex 4 0 0
      vertex 27.5 0 11.6699
    endloop
  endfacet
  facet normal 0 -1 0
    outer loop
      vertex 32.5 0 20.3301
      vertex 56 0 22
      vertex 27.5 0 20.3301
    endloop
  endfacet
  facet normal 0 -1 0
    outer loop
      vertex 35 0 16
      vertex 56 0 22
      vertex 32.5 0 20.3301
    endloop
  endfacet
  facet normal 0 -1 0
    outer loop
      vertex 56 0 0
      vertex 35 0 16
      vertex 32.5 0 11.6699
    endloop
  endfacet
  facet normal 0 -1 0
    outer loop
      vertex 35 0 16
      vertex 56 0 0
      vertex 56 0 22
    endloop
  endfacet
  facet normal 0 -1 0
    outer loop
      vertex 56 0 0
      vertex 32.5 0 11.6699
      vertex 4 0 0
    endloop
  endfacet
  facet normal -0.831443 0.55561 0
    outer loop
      vertex 0.535898 40 0
      vertex 0.826586 40.435 22
      vertex 0.826586 40.435 0
    endloop
  endfacet
  facet normal -0.831443 0.55561 0
    outer loop
      vertex 0.826586 40.435 22
      vertex 0.535898 40 0
      vertex 0.535898 40 22
    endloop
  endfacet
  facet normal 0 0 1
    outer loop
      vertex 57.3716 37.7481 22
      vertex 60 38 22
      vertex 59.9658 38.5221 22
    endloop
  endfacet
  facet normal 0 0 1
    outer loop
      vertex 60 38 22
      vertex 57.6 36.6 22
      vertex 60 4 22
    endloop
  endfacet
  facet normal 0 0 1
    outer loop
      vertex 57.3716 37.7481 22
      vertex 59.9658 38.5221 22
      vertex 59.8637 39.0353 22
    endloop
  endfacet
  facet normal -0 0 1
    outer loop
      vertex 57.6 5.4 22
      vertex 60 4 22
      vertex 57.6 36.6 22
    endloop
  endfacet
  facet normal 0 0 1
    outer loop
      vertex 57.1981 38.1 22
      vertex 59.8637 39.0353 22
      vertex 59.6955 39.5307 22
    endloop
  endfacet
  facet normal -0 0 1
    outer loop
      vertex 57.5743 5.00842 22
      vertex 60 4 22
      vertex 57.6 5.4 22
    endloop
  endfacet
  facet normal 0 0 1
    outer loop
      vertex 56.9801 38.4263 22
      vertex 59.6955 39.5307 22
      vertex 59.4641 40 22
    endloop
  endfacet
  facet normal -0 0 1
    outer loop
      vertex 57.4978 4.62354 22
      vertex 60 4 22
      vertex 57.5743 5.00842 22
    endloop
  endfacet
  facet normal 0 0 1
    outer loop
      vertex 56.9801 38.4263 22
      vertex 59.4641 40 22
      vertex 59.1734 40.435 22
    endloop
  endfacet
  facet normal -0 0 1
    outer loop
      vertex 57.3716 4.25195 22
      vertex 60 4 22
      vertex 57.4978 4.62354 22
    endloop
  endfacet
  facet normal 0 0 1
    outer loop
      vertex 56.7213 38.7213 22
      vertex 59.1734 40.435 22
      vertex 58.8284 40.8284 22
    endloop
  endfacet
  facet normal 0 0 1
    outer loop
      vertex 60 4 22
      vertex 57.3716 4.25195 22
      vertex 59.9658 3.47789 22
    endloop
  endfacet
  facet normal 0 0 1
    outer loop
      vertex 56.7213 38.7213 22
      vertex 58.8284 40.8284 22
      vertex 58.435 41.1734 22
    endloop
  endfacet
  facet normal 0 0 1
    outer loop
      vertex 59.9658 3.47789 22
      vertex 57.3716 4.25195 22
      vertex 59.8637 2.96472 22
    endloop
  endfacet
  facet normal 0 0 1
    outer loop
      vertex 56.4263 38.9801 22
      vertex 58.435 41.1734 22
      vertex 58 41.4641 22
    endloop
  endfacet
  facet normal -0 0 1
    outer loop
      vertex 57.1981 3.9 22
      vertex 59.8637 2.96472 22
      vertex 57.3716 4.25195 22
    endloop
  endfacet
  facet normal 0 0 1
    outer loop
      vertex 59.8637 2.96472 22
      vertex 57.1981 3.9 22
      vertex 59.6955 2.46927 22
    endloop
  endfacet
  facet normal 0 0 1
    outer loop
      vertex 60 38 22
      vertex 57.5743 36.9916 22
      vertex 57.6 36.6 22
    endloop
  endfacet
  facet normal 0 0 1
    outer loop
      vertex 56.4263 38.9801 22
      vertex 58 41.4641 22
      vertex 57.5307 41.6955 22
    endloop
  endfacet
  facet normal 0 0 1
    outer loop
      vertex 60 38 22
      vertex 57.4978 37.3765 22
      vertex 57.5743 36.9916 22
    endloop
  endfacet
  facet normal 0 0 1
    outer loop
      vertex 60 38 22
      vertex 57.3716 37.7481 22
      vertex 57.4978 37.3765 22
    endloop
  endfacet
  facet normal 0 0 1
    outer loop
      vertex 59.8637 39.0353 22
      vertex 57.1981 38.1 22
      vertex 57.3716 37.7481 22
    endloop
  endfacet
  facet normal 0 0 1
    outer loop
      vertex 56.1 39.1981 22
      vertex 57.5307 41.6955 22
      vertex 57.0353 41.8637 22
    endloop
  endfacet
  facet normal 0 0 1
    outer loop
      vertex 59.6955 39.5307 22
      vertex 56.9801 38.4263 22
      vertex 57.1981 38.1 22
    endloop
  endfacet
  facet normal 0 0 1
    outer loop
      vertex 59.1734 40.435 22
      vertex 56.7213 38.7213 22
      vertex 56.9801 38.4263 22
    endloop
  endfacet
  facet normal 0 0 1
    outer loop
      vertex 55.7481 39.3716 22
      vertex 57.0353 41.8637 22
      vertex 56.5221 41.9658 22
    endloop
  endfacet
  facet normal 0 0 1
    outer loop
      vertex 58.435 41.1734 22
      vertex 56.4263 38.9801 22
      vertex 56.7213 38.7213 22
    endloop
  endfacet
  facet normal 0 0 1
    outer loop
      vertex 57.5307 41.6955 22
      vertex 56.1 39.1981 22
      vertex 56.4263 38.9801 22
    endloop
  endfacet
  facet normal 0 0 1
    outer loop
      vertex 55.7481 39.3716 22
      vertex 56.5221 41.9658 22
      vertex 56 42 22
    endloop
  endfacet
  facet normal 0 0 1
    outer loop
      vertex 57.0353 41.8637 22
      vertex 55.7481 39.3716 22
      vertex 56.1 39.1981 22
    endloop
  endfacet
  facet normal 0 0 1
    outer loop
      vertex 56 42 22
      vertex 55.3765 39.4978 22
      vertex 55.7481 39.3716 22
    endloop
  endfacet
  facet normal 0 0 1
    outer loop
      vertex 56 42 22
      vertex 54.9916 39.5743 22
      vertex 55.3765 39.4978 22
    endloop
  endfacet
  facet normal 0 0 1
    outer loop
      vertex 56 42 22
      vertex 54.6 39.6 22
      vertex 54.9916 39.5743 22
    endloop
  endfacet
  facet normal 0 0 1
    outer loop
      vertex 56 42 22
      vertex 5.4 39.6 22
      vertex 54.6 39.6 22
    endloop
  endfacet
  facet normal -0 0 1
    outer loop
      vertex 4 42 22
      vertex 5.4 39.6 22
      vertex 56 42 22
    endloop
  endfacet
  facet normal 0 0 1
    outer loop
      vertex 4 42 22
      vertex 5.00842 39.5743 22
      vertex 5.4 39.6 22
    endloop
  endfacet
  facet normal 0 0 1
    outer loop
      vertex 4 42 22
      vertex 4.62354 39.4978 22
      vertex 5.00842 39.5743 22
    endloop
  endfacet
  facet normal 0 0 1
    outer loop
      vertex 4 42 22
      vertex 4.25195 39.3716 22
      vertex 4.62354 39.4978 22
    endloop
  endfacet
  facet normal -0 0 1
    outer loop
      vertex 3.47789 41.9658 22
      vertex 4.25195 39.3716 22
      vertex 4 42 22
    endloop
  endfacet
  facet normal -0 0 1
    outer loop
      vertex 2.96472 41.8637 22
      vertex 4.25195 39.3716 22
      vertex 3.47789 41.9658 22
    endloop
  endfacet
  facet normal 0 0 1
    outer loop
      vertex 4.25195 39.3716 22
      vertex 2.96472 41.8637 22
      vertex 3.9 39.1981 22
    endloop
  endfacet
  facet normal -0 0 1
    outer loop
      vertex 2.46927 41.6955 22
      vertex 3.9 39.1981 22
      vertex 2.96472 41.8637 22
    endloop
  endfacet
  facet normal 0 0 1
    outer loop
      vertex 3.9 39.1981 22
      vertex 2.46927 41.6955 22
      vertex 3.57372 38.9801 22
    endloop
  endfacet
  facet normal -0 0 1
    outer loop
      vertex 2 41.4641 22
      vertex 3.57372 38.9801 22
      vertex 2.46927 41.6955 22
    endloop
  endfacet
  facet normal -0 0 1
    outer loop
      vertex 1.56495 41.1734 22
      vertex 3.57372 38.9801 22
      vertex 2 41.4641 22
    endloop
  endfacet
  facet normal 0 0 1
    outer loop
      vertex 3.57372 38.9801 22
      vertex 1.56495 41.1734 22
      vertex 3.27868 38.7213 22
    endloop
  endfacet
  facet normal -0 0 1
    outer loop
      vertex 1.17157 40.8284 22
      vertex 3.27868 38.7213 22
      vertex 1.56495 41.1734 22
    endloop
  endfacet
  facet normal -0 0 1
    outer loop
      vertex 0.826586 40.435 22
      vertex 3.27868 38.7213 22
      vertex 1.17157 40.8284 22
    endloop
  endfacet
  facet normal 0 0 1
    outer loop
      vertex 3.27868 38.7213 22
      vertex 0.826586 40.435 22
      vertex 3.01994 38.4263 22
    endloop
  endfacet
  facet normal -0 0 1
    outer loop
      vertex 0.535898 40 22
      vertex 3.01994 38.4263 22
      vertex 0.826586 40.435 22
    endloop
  endfacet
  facet normal 0 0 1
    outer loop
      vertex 3.01994 38.4263 22
      vertex 0.304482 39.5307 22
      vertex 2.80192 38.1 22
    endloop
  endfacet
  facet normal -0 0 1
    outer loop
      vertex 0.304482 39.5307 22
      vertex 3.01994 38.4263 22
      vertex 0.535898 40 22
    endloop
  endfacet
  facet normal -0 0 1
    outer loop
      vertex 56.9801 3.57372 22
      vertex 59.6955 2.46927 22
      vertex 57.1981 3.9 22
    endloop
  endfacet
  facet normal 0 0 1
    outer loop
      vertex 59.6955 2.46927 22
      vertex 56.9801 3.57372 22
      vertex 59.4641 2 22
    endloop
  endfacet
  facet normal 0 0 1
    outer loop
      vertex 59.4641 2 22
      vertex 56.9801 3.57372 22
      vertex 59.1734 1.56495 22
    endloop
  endfacet
  facet normal -0 0 1
    outer loop
      vertex 56.7213 3.27868 22
      vertex 59.1734 1.56495 22
      vertex 56.9801 3.57372 22
    endloop
  endfacet
  facet normal 0 0 1
    outer loop
      vertex 59.1734 1.56495 22
      vertex 56.7213 3.27868 22
      vertex 58.8284 1.17157 22
    endloop
  endfacet
  facet normal 0 0 1
    outer loop
      vertex 58.8284 1.17157 22
      vertex 56.7213 3.27868 22
      vertex 58.435 0.826586 22
    endloop
  endfacet
  facet normal -0 0 1
    outer loop
      vertex 56.4263 3.01994 22
      vertex 58.435 0.826586 22
      vertex 56.7213 3.27868 22
    endloop
  endfacet
  facet normal 0 0 1
    outer loop
      vertex 58.435 0.826586 22
      vertex 56.4263 3.01994 22
      vertex 58 0.535898 22
    endloop
  endfacet
  facet normal 0 0 1
    outer loop
      vertex 58 0.535898 22
      vertex 56.4263 3.01994 22
      vertex 57.5307 0.304482 22
    endloop
  endfacet
  facet normal -0 0 1
    outer loop
      vertex 56.1 2.80192 22
      vertex 57.5307 0.304482 22
      vertex 56.4263 3.01994 22
    endloop
  endfacet
  facet normal 0 0 1
    outer loop
      vertex 57.5307 0.304482 22
      vertex 56.1 2.80192 22
      vertex 57.0353 0.136296 22
    endloop
  endfacet
  facet normal -0 0 1
    outer loop
      vertex 55.7481 2.62836 22
      vertex 57.0353 0.136296 22
      vertex 56.1 2.80192 22
    endloop
  endfacet
  facet normal 0 0 1
    outer loop
      vertex 57.0353 0.136296 22
      vertex 55.7481 2.62836 22
      vertex 56.5221 0.0342197 22
    endloop
  endfacet
  facet normal 0 0 1
    outer loop
      vertex 56.5221 0.0342197 22
      vertex 55.7481 2.62836 22
      vertex 56 0 22
    endloop
  endfacet
  facet normal -0 0 1
    outer loop
      vertex 55.3765 2.50222 22
      vertex 56 0 22
      vertex 55.7481 2.62836 22
    endloop
  endfacet
  facet normal -0 0 1
    outer loop
      vertex 54.9916 2.42566 22
      vertex 56 0 22
      vertex 55.3765 2.50222 22
    endloop
  endfacet
  facet normal -0 0 1
    outer loop
      vertex 54.6 2.4 22
      vertex 56 0 22
      vertex 54.9916 2.42566 22
    endloop
  endfacet
  facet normal -0 0 1
    outer loop
      vertex 5.4 2.4 22
      vertex 56 0 22
      vertex 54.6 2.4 22
    endloop
  endfacet
  facet normal 0 0 1
    outer loop
      vertex 5.4 2.4 22
      vertex 4 0 22
      vertex 56 0 22
    endloop
  endfacet
  facet normal 0 0 1
    outer loop
      vertex 5.00842 2.42566 22
      vertex 4 0 22
      vertex 5.4 2.4 22
    endloop
  endfacet
  facet normal 0 0 1
    outer loop
      vertex 4.62354 2.50222 22
      vertex 4 0 22
      vertex 5.00842 2.42566 22
    endloop
  endfacet
  facet normal 0 0 1
    outer loop
      vertex 4.25195 2.62836 22
      vertex 4 0 22
      vertex 4.62354 2.50222 22
    endloop
  endfacet
  facet normal 0 0 1
    outer loop
      vertex 2.96472 0.136296 22
      vertex 4.25195 2.62836 22
      vertex 3.9 2.80192 22
    endloop
  endfacet
  facet normal 0 0 1
    outer loop
      vertex 2.46927 0.304482 22
      vertex 3.9 2.80192 22
      vertex 3.57372 3.01994 22
    endloop
  endfacet
  facet normal 0 0 1
    outer loop
      vertex 4.25195 2.62836 22
      vertex 3.47789 0.0342197 22
      vertex 4 0 22
    endloop
  endfacet
  facet normal 0 0 1
    outer loop
      vertex 1.56495 0.826586 22
      vertex 3.57372 3.01994 22
      vertex 3.27868 3.27868 22
    endloop
  endfacet
  facet normal 0 0 1
    outer loop
      vertex 0.826586 1.56495 22
      vertex 3.27868 3.27868 22
      vertex 3.01994 3.57372 22
    endloop
  endfacet
  facet normal 0 0 1
    outer loop
      vertex 4.25195 2.62836 22
      vertex 2.96472 0.136296 22
      vertex 3.47789 0.0342197 22
    endloop
  endfacet
  facet normal 0 0 1
    outer loop
      vertex 0.304482 2.46927 22
      vertex 3.01994 3.57372 22
      vertex 2.80192 3.9 22
    endloop
  endfacet
  facet normal 0 0 1
    outer loop
      vertex 0.136296 2.96472 22
      vertex 2.80192 3.9 22
      vertex 2.62836 4.25195 22
    endloop
  endfacet
  facet normal 0 0 1
    outer loop
      vertex 0 4 22
      vertex 2.62836 4.25195 22
      vertex 2.50222 4.62354 22
    endloop
  endfacet
  facet normal 0 0 1
    outer loop
      vertex 3.9 2.80192 22
      vertex 2.46927 0.304482 22
      vertex 2.96472 0.136296 22
    endloop
  endfacet
  facet normal 0 0 1
    outer loop
      vertex 0 4 22
      vertex 2.50222 4.62354 22
      vertex 2.42566 5.00842 22
    endloop
  endfacet
  facet normal 0 0 1
    outer loop
      vertex 0 4 22
      vertex 2.42566 5.00842 22
      vertex 2.4 5.4 22
    endloop
  endfacet
  facet normal 0 0 1
    outer loop
      vertex 3.57372 3.01994 22
      vertex 2 0.535898 22
      vertex 2.46927 0.304482 22
    endloop
  endfacet
  facet normal 0 0 1
    outer loop
      vertex 2.4 36.6 22
      vertex 0 38 22
      vertex 2.4 5.4 22
    endloop
  endfacet
  facet normal -0 0 1
    outer loop
      vertex 0.136296 39.0353 22
      vertex 2.80192 38.1 22
      vertex 0.304482 39.5307 22
    endloop
  endfacet
  facet normal 0 0 1
    outer loop
      vertex 0 4 22
      vertex 2.4 5.4 22
      vertex 0 38 22
    endloop
  endfacet
  facet normal 0 0 1
    outer loop
      vertex 2.80192 38.1 22
      vertex 0.136296 39.0353 22
      vertex 2.62836 37.7481 22
    endloop
  endfacet
  facet normal 0 0 1
    outer loop
      vertex 2.62836 4.25195 22
      vertex 0 4 22
      vertex 0.0342197 3.47789 22
    endloop
  endfacet
  facet normal -0 0 1
    outer loop
      vertex 0.0342197 38.5221 22
      vertex 2.62836 37.7481 22
      vertex 0.136296 39.0353 22
    endloop
  endfacet
  facet normal 0 0 1
    outer loop
      vertex 3.57372 3.01994 22
      vertex 1.56495 0.826586 22
      vertex 2 0.535898 22
    endloop
  endfacet
  facet normal -0 0 1
    outer loop
      vertex 0 38 22
      vertex 2.62836 37.7481 22
      vertex 0.0342197 38.5221 22
    endloop
  endfacet
  facet normal 0 0 1
    outer loop
      vertex 3.27868 3.27868 22
      vertex 1.17157 1.17157 22
      vertex 1.56495 0.826586 22
    endloop
  endfacet
  facet normal 0 0 1
    outer loop
      vertex 2.62836 37.7481 22
      vertex 0 38 22
      vertex 2.50222 37.3765 22
    endloop
  endfacet
  facet normal 0 0 1
    outer loop
      vertex 3.27868 3.27868 22
      vertex 0.826586 1.56495 22
      vertex 1.17157 1.17157 22
    endloop
  endfacet
  facet normal 0 0 1
    outer loop
      vertex 2.50222 37.3765 22
      vertex 0 38 22
      vertex 2.42566 36.9916 22
    endloop
  endfacet
  facet normal 0 0 1
    outer loop
      vertex 3.01994 3.57372 22
      vertex 0.535898 2 22
      vertex 0.826586 1.56495 22
    endloop
  endfacet
  facet normal 0 0 1
    outer loop
      vertex 2.42566 36.9916 22
      vertex 0 38 22
      vertex 2.4 36.6 22
    endloop
  endfacet
  facet normal 0 0 1
    outer loop
      vertex 3.01994 3.57372 22
      vertex 0.304482 2.46927 22
      vertex 0.535898 2 22
    endloop
  endfacet
  facet normal 0 0 1
    outer loop
      vertex 2.80192 3.9 22
      vertex 0.136296 2.96472 22
      vertex 0.304482 2.46927 22
    endloop
  endfacet
  facet normal 0 0 1
    outer loop
      vertex 2.62836 4.25195 22
      vertex 0.0342197 3.47789 22
      vertex 0.136296 2.96472 22
    endloop
  endfacet
  facet normal -1 0 0
    outer loop
      vertex 0 4 0
      vertex 0 38 22
      vertex 0 38 0
    endloop
  endfacet
  facet normal -1 -0 0
    outer loop
      vertex 0 38 22
      vertex 0 4 0
      vertex 0 4 22
    endloop
  endfacet
  facet normal 0 0 -1
    outer loop
      vertex 56 0 0
      vertex 60 4 0
      vertex 59.9658 3.47789 0
    endloop
  endfacet
  facet normal -0 0 -1
    outer loop
      vertex 60 4 0
      vertex 56 0 0
      vertex 60 38 0
    endloop
  endfacet
  facet normal 0 0 -1
    outer loop
      vertex 56 0 0
      vertex 59.9658 3.47789 0
      vertex 59.8637 2.96472 0
    endloop
  endfacet
  facet normal 0 0 -1
    outer loop
      vertex 56 42 0
      vertex 60 38 0
      vertex 56 0 0
    endloop
  endfacet
  facet normal 0 0 -1
    outer loop
      vertex 56 0 0
      vertex 59.8637 2.96472 0
      vertex 59.6955 2.46927 0
    endloop
  endfacet
  facet normal 0 0 -1
    outer loop
      vertex 60 38 0
      vertex 56 42 0
      vertex 59.9658 38.5221 0
    endloop
  endfacet
  facet normal 0 0 -1
    outer loop
      vertex 56 0 0
      vertex 59.6955 2.46927 0
      vertex 59.4641 2 0
    endloop
  endfacet
  facet normal 0 0 -1
    outer loop
      vertex 59.9658 38.5221 0
      vertex 56 42 0
      vertex 59.8637 39.0353 0
    endloop
  endfacet
  facet normal 0 0 -1
    outer loop
      vertex 56 0 0
      vertex 59.4641 2 0
      vertex 59.1734 1.56495 0
    endloop
  endfacet
  facet normal 0 0 -1
    outer loop
      vertex 59.8637 39.0353 0
      vertex 56 42 0
      vertex 59.6955 39.5307 0
    endloop
  endfacet
  facet normal 0 0 -1
    outer loop
      vertex 56 0 0
      vertex 59.1734 1.56495 0
      vertex 58.8284 1.17157 0
    endloop
  endfacet
  facet normal 0 0 -1
    outer loop
      vertex 59.6955 39.5307 0
      vertex 56 42 0
      vertex 59.4641 40 0
    endloop
  endfacet
  facet normal 0 0 -1
    outer loop
      vertex 56 0 0
      vertex 58.8284 1.17157 0
      vertex 58.435 0.826586 0
    endloop
  endfacet
  facet normal 0 0 -1
    outer loop
      vertex 59.4641 40 0
      vertex 56 42 0
      vertex 59.1734 40.435 0
    endloop
  endfacet
  facet normal 0 0 -1
    outer loop
      vertex 56 0 0
      vertex 58.435 0.826586 0
      vertex 58 0.535898 0
    endloop
  endfacet
  facet normal 0 0 -1
    outer loop
      vertex 59.1734 40.435 0
      vertex 56 42 0
      vertex 58.8284 40.8284 0
    endloop
  endfacet
  facet normal 0 0 -1
    outer loop
      vertex 56 0 0
      vertex 58 0.535898 0
      vertex 57.5307 0.304482 0
    endloop
  endfacet
  facet normal 0 0 -1
    outer loop
      vertex 58.8284 40.8284 0
      vertex 56 42 0
      vertex 58.435 41.1734 0
    endloop
  endfacet
  facet normal 0 0 -1
    outer loop
      vertex 56 0 0
      vertex 57.5307 0.304482 0
      vertex 57.0353 0.136296 0
    endloop
  endfacet
  facet normal 0 0 -1
    outer loop
      vertex 58.435 41.1734 0
      vertex 56 42 0
      vertex 58 41.4641 0
    endloop
  endfacet
  facet normal 0 0 -1
    outer loop
      vertex 56 0 0
      vertex 57.0353 0.136296 0
      vertex 56.5221 0.0342197 0
    endloop
  endfacet
  facet normal 0 0 -1
    outer loop
      vertex 58 41.4641 0
      vertex 56 42 0
      vertex 57.5307 41.6955 0
    endloop
  endfacet
  facet normal 0 0 -1
    outer loop
      vertex 57.5307 41.6955 0
      vertex 56 42 0
      vertex 57.0353 41.8637 0
    endloop
  endfacet
  facet normal 0 0 -1
    outer loop
      vertex 57.0353 41.8637 0
      vertex 56 42 0
      vertex 56.5221 41.9658 0
    endloop
  endfacet
  facet normal 0 0 -1
    outer loop
      vertex 4 0 0
      vertex 56 42 0
      vertex 56 0 0
    endloop
  endfacet
  facet normal 0 0 -1
    outer loop
      vertex 4 0 0
      vertex 4 42 0
      vertex 56 42 0
    endloop
  endfacet
  facet normal 0 0 -1
    outer loop
      vertex 0 4 0
      vertex 4 0 0
      vertex 3.47789 0.0342197 0
    endloop
  endfacet
  facet normal 0 0 -1
    outer loop
      vertex 4 0 0
      vertex 0 4 0
      vertex 4 42 0
    endloop
  endfacet
  facet normal 0 0 -1
    outer loop
      vertex 0 4 0
      vertex 3.47789 0.0342197 0
      vertex 2.96472 0.136296 0
    endloop
  endfacet
  facet normal 0 0 -1
    outer loop
      vertex 0 38 0
      vertex 4 42 0
      vertex 0 4 0
    endloop
  endfacet
  facet normal 0 0 -1
    outer loop
      vertex 0 4 0
      vertex 2.96472 0.136296 0
      vertex 2.46927 0.304482 0
    endloop
  endfacet
  facet normal 0 0 -1
    outer loop
      vertex 4 42 0
      vertex 0 38 0
      vertex 3.47789 41.9658 0
    endloop
  endfacet
  facet normal 0 0 -1
    outer loop
      vertex 0 4 0
      vertex 2.46927 0.304482 0
      vertex 2 0.535898 0
    endloop
  endfacet
  facet normal 0 0 -1
    outer loop
      vertex 3.47789 41.9658 0
      vertex 0 38 0
      vertex 2.96472 41.8637 0
    endloop
  endfacet
  facet normal 0 0 -1
    outer loop
      vertex 0 4 0
      vertex 2 0.535898 0
      vertex 1.56495 0.826586 0
    endloop
  endfacet
  facet normal 0 0 -1
    outer loop
      vertex 2.96472 41.8637 0
      vertex 0 38 0
      vertex 2.46927 41.6955 0
    endloop
  endfacet
  facet normal 0 0 -1
    outer loop
      vertex 0 4 0
      vertex 1.56495 0.826586 0
      vertex 1.17157 1.17157 0
    endloop
  endfacet
  facet normal 0 0 -1
    outer loop
      vertex 2.46927 41.6955 0
      vertex 0 38 0
      vertex 2 41.4641 0
    endloop
  endfacet
  facet normal 0 0 -1
    outer loop
      vertex 0 4 0
      vertex 1.17157 1.17157 0
      vertex 0.826586 1.56495 0
    endloop
  endfacet
  facet normal 0 0 -1
    outer loop
      vertex 2 41.4641 0
      vertex 0 38 0
      vertex 1.56495 41.1734 0
    endloop
  endfacet
  facet normal 0 0 -1
    outer loop
      vertex 0 4 0
      vertex 0.826586 1.56495 0
      vertex 0.535898 2 0
    endloop
  endfacet
  facet normal 0 0 -1
    outer loop
      vertex 1.56495 41.1734 0
      vertex 0 38 0
      vertex 1.17157 40.8284 0
    endloop
  endfacet
  facet normal 0 0 -1
    outer loop
      vertex 0 4 0
      vertex 0.535898 2 0
      vertex 0.304482 2.46927 0
    endloop
  endfacet
  facet normal 0 0 -1
    outer loop
      vertex 1.17157 40.8284 0
      vertex 0 38 0
      vertex 0.826586 40.435 0
    endloop
  endfacet
  facet normal 0 0 -1
    outer loop
      vertex 0 4 0
      vertex 0.304482 2.46927 0
      vertex 0.136296 2.96472 0
    endloop
  endfacet
  facet normal 0 0 -1
    outer loop
      vertex 0.826586 40.435 0
      vertex 0 38 0
      vertex 0.535898 40 0
    endloop
  endfacet
  facet normal 0 0 -1
    outer loop
      vertex 0 4 0
      vertex 0.136296 2.96472 0
      vertex 0.0342197 3.47789 0
    endloop
  endfacet
  facet normal 0 0 -1
    outer loop
      vertex 0.535898 40 0
      vertex 0 38 0
      vertex 0.304482 39.5307 0
    endloop
  endfacet
  facet normal 0 0 -1
    outer loop
      vertex 0.304482 39.5307 0
      vertex 0 38 0
      vertex 0.136296 39.0353 0
    endloop
  endfacet
  facet normal 0 0 -1
    outer loop
      vertex 0.136296 39.0353 0
      vertex 0 38 0
      vertex 0.0342197 38.5221 0
    endloop
  endfacet
  facet normal 0 1 -0
    outer loop
      vertex 56 42 0
      vertex 4 42 22
      vertex 56 42 22
    endloop
  endfacet
  facet normal 0 1 0
    outer loop
      vertex 4 42 22
      vertex 56 42 0
      vertex 4 42 0
    endloop
  endfacet
  facet normal 0.55561 -0.831443 0
    outer loop
      vertex 58 0.535898 0
      vertex 58.435 0.826586 22
      vertex 58 0.535898 22
    endloop
  endfacet
  facet normal 0.55561 -0.831443 0
    outer loop
      vertex 58.435 0.826586 22
      vertex 58 0.535898 0
      vertex 58.435 0.826586 0
    endloop
  endfacet
  facet normal 0.0654021 -0.997859 0
    outer loop
      vertex 56 0 0
      vertex 56.5221 0.0342197 22
      vertex 56 0 22
    endloop
  endfacet
  facet normal 0.0654021 -0.997859 0
    outer loop
      vertex 56.5221 0.0342197 22
      vertex 56 0 0
      vertex 56.5221 0.0342197 0
    endloop
  endfacet
  facet normal -0.659362 0.751826 0
    outer loop
      vertex 1.56495 41.1734 0
      vertex 1.17157 40.8284 22
      vertex 1.56495 41.1734 22
    endloop
  endfacet
  facet normal -0.659362 0.751826 0
    outer loop
      vertex 1.17157 40.8284 22
      vertex 1.56495 41.1734 0
      vertex 1.17157 40.8284 0
    endloop
  endfacet
  facet normal 0.659343 0.751842 -0
    outer loop
      vertex 58.8284 40.8284 0
      vertex 58.435 41.1734 22
      vertex 58.8284 40.8284 22
    endloop
  endfacet
  facet normal 0.659343 0.751842 0
    outer loop
      vertex 58.435 41.1734 22
      vertex 58.8284 40.8284 0
      vertex 58.435 41.1734 0
    endloop
  endfacet
  facet normal -0.980785 -0.195091 0
    outer loop
      vertex 0.136296 2.96472 0
      vertex 0.0342197 3.47789 22
      vertex 0.0342197 3.47789 0
    endloop
  endfacet
  facet normal -0.980785 -0.195091 0
    outer loop
      vertex 0.0342197 3.47789 22
      vertex 0.136296 2.96472 0
      vertex 0.136296 2.96472 22
    endloop
  endfacet
  facet normal -0.831472 -0.555566 0
    outer loop
      vertex 0.826586 1.56495 0
      vertex 0.535898 2 22
      vertex 0.535898 2 0
    endloop
  endfacet
  facet normal -0.831472 -0.555566 0
    outer loop
      vertex 0.535898 2 22
      vertex 0.826586 1.56495 0
      vertex 0.826586 1.56495 22
    endloop
  endfacet
  facet normal -0.0654009 -0.997859 0
    outer loop
      vertex 3.47789 0.0342197 0
      vertex 4 0 22
      vertex 3.47789 0.0342197 22
    endloop
  endfacet
  facet normal -0.0654009 -0.997859 -0
    outer loop
      vertex 4 0 22
      vertex 3.47789 0.0342197 0
      vertex 4 0 0
    endloop
  endfacet
  facet normal 0.751826 -0.659362 0
    outer loop
      vertex 58.8284 1.17157 22
      vertex 59.1734 1.56495 0
      vertex 59.1734 1.56495 22
    endloop
  endfacet
  facet normal 0.751826 -0.659362 0
    outer loop
      vertex 59.1734 1.56495 0
      vertex 58.8284 1.17157 22
      vertex 58.8284 1.17157 0
    endloop
  endfacet
  facet normal 0.831462 -0.555582 0
    outer loop
      vertex 59.1734 1.56495 22
      vertex 59.4641 2 0
      vertex 59.4641 2 22
    endloop
  endfacet
  facet normal 0.831462 -0.555582 0
    outer loop
      vertex 59.4641 2 0
      vertex 59.1734 1.56495 22
      vertex 59.1734 1.56495 0
    endloop
  endfacet
  facet normal 0.94692 -0.321469 0
    outer loop
      vertex 59.6955 2.46927 22
      vertex 59.8637 2.96472 0
      vertex 59.8637 2.96472 22
    endloop
  endfacet
  facet normal 0.94692 -0.321469 0
    outer loop
      vertex 59.8637 2.96472 0
      vertex 59.6955 2.46927 22
      vertex 59.6955 2.46927 0
    endloop
  endfacet
  facet normal 0.980776 -0.195135 0
    outer loop
      vertex 59.8637 2.96472 22
      vertex 59.9658 3.47789 0
      vertex 59.9658 3.47789 22
    endloop
  endfacet
  facet normal 0.980776 -0.195135 0
    outer loop
      vertex 59.9658 3.47789 0
      vertex 59.8637 2.96472 22
      vertex 59.8637 2.96472 0
    endloop
  endfacet
  facet normal 0.831432 0.555626 0
    outer loop
      vertex 59.4641 40 22
      vertex 59.1734 40.435 0
      vertex 59.1734 40.435 22
    endloop
  endfacet
  facet normal 0.831432 0.555626 0
    outer loop
      vertex 59.1734 40.435 0
      vertex 59.4641 40 22
      vertex 59.4641 40 0
    endloop
  endfacet
  facet normal -0.751857 0.659326 0
    outer loop
      vertex 0.826586 40.435 0
      vertex 1.17157 40.8284 22
      vertex 1.17157 40.8284 0
    endloop
  endfacet
  facet normal -0.751857 0.659326 0
    outer loop
      vertex 1.17157 40.8284 22
      vertex 0.826586 40.435 0
      vertex 0.826586 40.435 22
    endloop
  endfacet
  facet normal -0.44226 0.896887 0
    outer loop
      vertex 2.46927 41.6955 0
      vertex 2 41.4641 22
      vertex 2.46927 41.6955 22
    endloop
  endfacet
  facet normal -0.44226 0.896887 0
    outer loop
      vertex 2 41.4641 22
      vertex 2.46927 41.6955 0
      vertex 2 41.4641 0
    endloop
  endfacet
  facet normal -0.946918 0.321474 0
    outer loop
      vertex 0.136296 39.0353 0
      vertex 0.304482 39.5307 22
      vertex 0.304482 39.5307 0
    endloop
  endfacet
  facet normal -0.946918 0.321474 0
    outer loop
      vertex 0.304482 39.5307 22
      vertex 0.136296 39.0353 0
      vertex 0.136296 39.0353 22
    endloop
  endfacet
  facet normal -0.195135 0.980776 0
    outer loop
      vertex 3.47789 41.9658 0
      vertex 2.96472 41.8637 22
      vertex 3.47789 41.9658 22
    endloop
  endfacet
  facet normal -0.195135 0.980776 0
    outer loop
      vertex 2.96472 41.8637 22
      vertex 3.47789 41.9658 0
      vertex 2.96472 41.8637 0
    endloop
  endfacet
  facet normal -0.0653634 0.997862 0
    outer loop
      vertex 4 42 0
      vertex 3.47789 41.9658 22
      vertex 4 42 22
    endloop
  endfacet
  facet normal -0.0653634 0.997862 0
    outer loop
      vertex 3.47789 41.9658 22
      vertex 4 42 0
      vertex 3.47789 41.9658 0
    endloop
  endfacet
  facet normal -0.896875 -0.442285 0
    outer loop
      vertex 0.535898 2 0
      vertex 0.304482 2.46927 22
      vertex 0.304482 2.46927 0
    endloop
  endfacet
  facet normal -0.896875 -0.442285 0
    outer loop
      vertex 0.304482 2.46927 22
      vertex 0.535898 2 0
      vertex 0.535898 2 22
    endloop
  endfacet
  facet normal -0.555566 -0.831472 0
    outer loop
      vertex 1.56495 0.826586 0
      vertex 2 0.535898 22
      vertex 1.56495 0.826586 22
    endloop
  endfacet
  facet normal -0.555566 -0.831472 -0
    outer loop
      vertex 2 0.535898 22
      vertex 1.56495 0.826586 0
      vertex 2 0.535898 0
    endloop
  endfacet
  facet normal 0.896887 -0.44226 0
    outer loop
      vertex 59.4641 2 22
      vertex 59.6955 2.46927 0
      vertex 59.6955 2.46927 22
    endloop
  endfacet
  facet normal 0.896887 -0.44226 0
    outer loop
      vertex 59.6955 2.46927 0
      vertex 59.4641 2 22
      vertex 59.4641 2 0
    endloop
  endfacet
  facet normal 0.896898 0.442238 0
    outer loop
      vertex 59.6955 39.5307 22
      vertex 59.4641 40 0
      vertex 59.4641 40 22
    endloop
  endfacet
  facet normal 0.896898 0.442238 0
    outer loop
      vertex 59.4641 40 0
      vertex 59.6955 39.5307 22
      vertex 59.6955 39.5307 0
    endloop
  endfacet
  facet normal 0.980779 0.195124 0
    outer loop
      vertex 59.9658 38.5221 22
      vertex 59.8637 39.0353 0
      vertex 59.8637 39.0353 22
    endloop
  endfacet
  facet normal 0.980779 0.195124 0
    outer loop
      vertex 59.8637 39.0353 0
      vertex 59.9658 38.5221 22
      vertex 59.9658 38.5221 0
    endloop
  endfacet
  facet normal 0.997861 0.0653646 0
    outer loop
      vertex 60 38 22
      vertex 59.9658 38.5221 0
      vertex 59.9658 38.5221 22
    endloop
  endfacet
  facet normal 0.997861 0.0653646 0
    outer loop
      vertex 59.9658 38.5221 0
      vertex 60 38 22
      vertex 60 38 0
    endloop
  endfacet
  facet normal 0.751842 0.659343 0
    outer loop
      vertex 59.1734 40.435 22
      vertex 58.8284 40.8284 0
      vertex 58.8284 40.8284 22
    endloop
  endfacet
  facet normal 0.751842 0.659343 0
    outer loop
      vertex 58.8284 40.8284 0
      vertex 59.1734 40.435 22
      vertex 59.1734 40.435 0
    endloop
  endfacet
  facet normal 0.195124 0.980779 -0
    outer loop
      vertex 57.0353 41.8637 0
      vertex 56.5221 41.9658 22
      vertex 57.0353 41.8637 22
    endloop
  endfacet
  facet normal 0.195124 0.980779 0
    outer loop
      vertex 56.5221 41.9658 22
      vertex 57.0353 41.8637 0
      vertex 56.5221 41.9658 0
    endloop
  endfacet
  facet normal 0.321498 0.94691 -0
    outer loop
      vertex 57.5307 41.6955 0
      vertex 57.0353 41.8637 22
      vertex 57.5307 41.6955 22
    endloop
  endfacet
  facet normal 0.321498 0.94691 0
    outer loop
      vertex 57.0353 41.8637 22
      vertex 57.5307 41.6955 0
      vertex 57.0353 41.8637 0
    endloop
  endfacet
  facet normal -0.659345 -0.751841 0
    outer loop
      vertex 1.17157 1.17157 0
      vertex 1.56495 0.826586 22
      vertex 1.17157 1.17157 22
    endloop
  endfacet
  facet normal -0.659345 -0.751841 -0
    outer loop
      vertex 1.56495 0.826586 22
      vertex 1.17157 1.17157 0
      vertex 1.56495 0.826586 0
    endloop
  endfacet
  facet normal -0.751841 -0.659345 0
    outer loop
      vertex 1.17157 1.17157 0
      vertex 0.826586 1.56495 22
      vertex 0.826586 1.56495 0
    endloop
  endfacet
  facet normal -0.751841 -0.659345 0
    outer loop
      vertex 0.826586 1.56495 22
      vertex 1.17157 1.17157 0
      vertex 1.17157 1.17157 22
    endloop
  endfacet
  facet normal -0.321445 -0.946928 0
    outer loop
      vertex 2.46927 0.304482 0
      vertex 2.96472 0.136296 22
      vertex 2.46927 0.304482 22
    endloop
  endfacet
  facet normal -0.321445 -0.946928 -0
    outer loop
      vertex 2.96472 0.136296 22
      vertex 2.46927 0.304482 0
      vertex 2.96472 0.136296 0
    endloop
  endfacet
  facet normal -0.442285 -0.896875 0
    outer loop
      vertex 2 0.535898 0
      vertex 2.46927 0.304482 22
      vertex 2 0.535898 22
    endloop
  endfacet
  facet normal -0.442285 -0.896875 -0
    outer loop
      vertex 2.46927 0.304482 22
      vertex 2 0.535898 0
      vertex 2.46927 0.304482 0
    endloop
  endfacet
  facet normal -0.896886 0.442262 0
    outer loop
      vertex 0.304482 39.5307 0
      vertex 0.535898 40 22
      vertex 0.535898 40 0
    endloop
  endfacet
  facet normal -0.896886 0.442262 0
    outer loop
      vertex 0.535898 40 22
      vertex 0.304482 39.5307 0
      vertex 0.304482 39.5307 22
    endloop
  endfacet
  facet normal -0.997859 0.0654021 0
    outer loop
      vertex 0 38 0
      vertex 0.0342197 38.5221 22
      vertex 0.0342197 38.5221 0
    endloop
  endfacet
  facet normal -0.997859 0.0654021 0
    outer loop
      vertex 0.0342197 38.5221 22
      vertex 0 38 0
      vertex 0 38 22
    endloop
  endfacet
  facet normal -0.980787 0.19508 0
    outer loop
      vertex 0.0342197 38.5221 0
      vertex 0.136296 39.0353 22
      vertex 0.136296 39.0353 0
    endloop
  endfacet
  facet normal -0.980787 0.19508 0
    outer loop
      vertex 0.136296 39.0353 22
      vertex 0.0342197 38.5221 0
      vertex 0.0342197 38.5221 22
    endloop
  endfacet
  facet normal -0.946928 -0.321445 0
    outer loop
      vertex 0.304482 2.46927 0
      vertex 0.136296 2.96472 22
      vertex 0.136296 2.96472 0
    endloop
  endfacet
  facet normal -0.946928 -0.321445 0
    outer loop
      vertex 0.136296 2.96472 22
      vertex 0.304482 2.46927 0
      vertex 0.304482 2.46927 22
    endloop
  endfacet
  facet normal -0.195091 -0.980785 0
    outer loop
      vertex 2.96472 0.136296 0
      vertex 3.47789 0.0342197 22
      vertex 2.96472 0.136296 22
    endloop
  endfacet
  facet normal -0.195091 -0.980785 -0
    outer loop
      vertex 3.47789 0.0342197 22
      vertex 2.96472 0.136296 0
      vertex 3.47789 0.0342197 0
    endloop
  endfacet
  facet normal 0 0 1
    outer loop
      vertex 54.6 39.6 3
      vertex 57.6 36.6 3
      vertex 57.5743 36.9916 3
    endloop
  endfacet
  facet normal 0 0 1
    outer loop
      vertex 57.6 36.6 3
      vertex 54.6 39.6 3
      vertex 57.6 5.4 3
    endloop
  endfacet
  facet normal 0 0 1
    outer loop
      vertex 54.6 39.6 3
      vertex 57.5743 36.9916 3
      vertex 57.4978 37.3765 3
    endloop
  endfacet
  facet normal 0 0 1
    outer loop
      vertex 54.6 2.4 3
      vertex 57.6 5.4 3
      vertex 54.6 39.6 3
    endloop
  endfacet
  facet normal 0 0 1
    outer loop
      vertex 54.6 39.6 3
      vertex 57.4978 37.3765 3
      vertex 57.3716 37.7481 3
    endloop
  endfacet
  facet normal 0 0 1
    outer loop
      vertex 57.6 5.4 3
      vertex 54.6 2.4 3
      vertex 57.5743 5.00842 3
    endloop
  endfacet
  facet normal 0 0 1
    outer loop
      vertex 54.6 39.6 3
      vertex 57.3716 37.7481 3
      vertex 57.1981 38.1 3
    endloop
  endfacet
  facet normal 0 0 1
    outer loop
      vertex 57.5743 5.00842 3
      vertex 54.6 2.4 3
      vertex 57.4978 4.62354 3
    endloop
  endfacet
  facet normal 0 0 1
    outer loop
      vertex 54.6 39.6 3
      vertex 57.1981 38.1 3
      vertex 56.9801 38.4263 3
    endloop
  endfacet
  facet normal 0 0 1
    outer loop
      vertex 57.4978 4.62354 3
      vertex 54.6 2.4 3
      vertex 57.3716 4.25195 3
    endloop
  endfacet
  facet normal 0 0 1
    outer loop
      vertex 54.6 39.6 3
      vertex 56.9801 38.4263 3
      vertex 56.7213 38.7213 3
    endloop
  endfacet
  facet normal 0 0 1
    outer loop
      vertex 57.3716 4.25195 3
      vertex 54.6 2.4 3
      vertex 57.1981 3.9 3
    endloop
  endfacet
  facet normal 0 0 1
    outer loop
      vertex 54.6 39.6 3
      vertex 56.7213 38.7213 3
      vertex 56.4263 38.9801 3
    endloop
  endfacet
  facet normal 0 0 1
    outer loop
      vertex 57.1981 3.9 3
      vertex 54.6 2.4 3
      vertex 56.9801 3.57372 3
    endloop
  endfacet
  facet normal 0 0 1
    outer loop
      vertex 54.6 39.6 3
      vertex 56.4263 38.9801 3
      vertex 56.1 39.1981 3
    endloop
  endfacet
  facet normal 0 0 1
    outer loop
      vertex 56.9801 3.57372 3
      vertex 54.6 2.4 3
      vertex 56.7213 3.27868 3
    endloop
  endfacet
  facet normal 0 0 1
    outer loop
      vertex 54.6 39.6 3
      vertex 56.1 39.1981 3
      vertex 55.7481 39.3716 3
    endloop
  endfacet
  facet normal 0 0 1
    outer loop
      vertex 56.7213 3.27868 3
      vertex 54.6 2.4 3
      vertex 56.4263 3.01994 3
    endloop
  endfacet
  facet normal 0 0 1
    outer loop
      vertex 54.6 39.6 3
      vertex 55.7481 39.3716 3
      vertex 55.3765 39.4978 3
    endloop
  endfacet
  facet normal 0 0 1
    outer loop
      vertex 56.4263 3.01994 3
      vertex 54.6 2.4 3
      vertex 56.1 2.80192 3
    endloop
  endfacet
  facet normal 0 0 1
    outer loop
      vertex 54.6 39.6 3
      vertex 55.3765 39.4978 3
      vertex 54.9916 39.5743 3
    endloop
  endfacet
  facet normal 0 0 1
    outer loop
      vertex 56.1 2.80192 3
      vertex 54.6 2.4 3
      vertex 55.7481 2.62836 3
    endloop
  endfacet
  facet normal 0 0 1
    outer loop
      vertex 55.7481 2.62836 3
      vertex 54.6 2.4 3
      vertex 55.3765 2.50222 3
    endloop
  endfacet
  facet normal 0 0 1
    outer loop
      vertex 55.3765 2.50222 3
      vertex 54.6 2.4 3
      vertex 54.9916 2.42566 3
    endloop
  endfacet
  facet normal -0 0 1
    outer loop
      vertex 5.4 39.6 3
      vertex 54.6 2.4 3
      vertex 54.6 39.6 3
    endloop
  endfacet
  facet normal 0 0 1
    outer loop
      vertex 5.4 39.6 3
      vertex 5.4 2.4 3
      vertex 54.6 2.4 3
    endloop
  endfacet
  facet normal 0 0 1
    outer loop
      vertex 2.4 36.6 3
      vertex 5.4 39.6 3
      vertex 5.00842 39.5743 3
    endloop
  endfacet
  facet normal 0 0 1
    outer loop
      vertex 5.4 39.6 3
      vertex 2.4 36.6 3
      vertex 5.4 2.4 3
    endloop
  endfacet
  facet normal 0 0 1
    outer loop
      vertex 2.4 36.6 3
      vertex 5.00842 39.5743 3
      vertex 4.62354 39.4978 3
    endloop
  endfacet
  facet normal -0 0 1
    outer loop
      vertex 2.4 5.4 3
      vertex 5.4 2.4 3
      vertex 2.4 36.6 3
    endloop
  endfacet
  facet normal 0 0 1
    outer loop
      vertex 2.4 36.6 3
      vertex 4.62354 39.4978 3
      vertex 4.25195 39.3716 3
    endloop
  endfacet
  facet normal 0 0 1
    outer loop
      vertex 5.4 2.4 3
      vertex 2.4 5.4 3
      vertex 5.00842 2.42566 3
    endloop
  endfacet
  facet normal 0 0 1
    outer loop
      vertex 2.4 36.6 3
      vertex 4.25195 39.3716 3
      vertex 3.9 39.1981 3
    endloop
  endfacet
  facet normal 0 0 1
    outer loop
      vertex 5.00842 2.42566 3
      vertex 2.4 5.4 3
      vertex 4.62354 2.50222 3
    endloop
  endfacet
  facet normal 0 0 1
    outer loop
      vertex 2.4 36.6 3
      vertex 3.9 39.1981 3
      vertex 3.57372 38.9801 3
    endloop
  endfacet
  facet normal 0 0 1
    outer loop
      vertex 4.62354 2.50222 3
      vertex 2.4 5.4 3
      vertex 4.25195 2.62836 3
    endloop
  endfacet
  facet normal 0 0 1
    outer loop
      vertex 2.4 36.6 3
      vertex 3.57372 38.9801 3
      vertex 3.27868 38.7213 3
    endloop
  endfacet
  facet normal 0 0 1
    outer loop
      vertex 4.25195 2.62836 3
      vertex 2.4 5.4 3
      vertex 3.9 2.80192 3
    endloop
  endfacet
  facet normal 0 0 1
    outer loop
      vertex 2.4 36.6 3
      vertex 3.27868 38.7213 3
      vertex 3.01994 38.4263 3
    endloop
  endfacet
  facet normal 0 0 1
    outer loop
      vertex 3.9 2.80192 3
      vertex 2.4 5.4 3
      vertex 3.57372 3.01994 3
    endloop
  endfacet
  facet normal 0 0 1
    outer loop
      vertex 2.4 36.6 3
      vertex 3.01994 38.4263 3
      vertex 2.80192 38.1 3
    endloop
  endfacet
  facet normal 0 0 1
    outer loop
      vertex 3.57372 3.01994 3
      vertex 2.4 5.4 3
      vertex 3.27868 3.27868 3
    endloop
  endfacet
  facet normal 0 0 1
    outer loop
      vertex 2.4 36.6 3
      vertex 2.80192 38.1 3
      vertex 2.62836 37.7481 3
    endloop
  endfacet
  facet normal 0 0 1
    outer loop
      vertex 3.27868 3.27868 3
      vertex 2.4 5.4 3
      vertex 3.01994 3.57372 3
    endloop
  endfacet
  facet normal 0 0 1
    outer loop
      vertex 2.4 36.6 3
      vertex 2.62836 37.7481 3
      vertex 2.50222 37.3765 3
    endloop
  endfacet
  facet normal 0 0 1
    outer loop
      vertex 3.01994 3.57372 3
      vertex 2.4 5.4 3
      vertex 2.80192 3.9 3
    endloop
  endfacet
  facet normal 0 0 1
    outer loop
      vertex 2.4 36.6 3
      vertex 2.50222 37.3765 3
      vertex 2.42566 36.9916 3
    endloop
  endfacet
  facet normal 0 0 1
    outer loop
      vertex 2.80192 3.9 3
      vertex 2.4 5.4 3
      vertex 2.62836 4.25195 3
    endloop
  endfacet
  facet normal 0 0 1
    outer loop
      vertex 2.62836 4.25195 3
      vertex 2.4 5.4 3
      vertex 2.50222 4.62354 3
    endloop
  endfacet
  facet normal 0 0 1
    outer loop
      vertex 2.50222 4.62354 3
      vertex 2.4 5.4 3
      vertex 2.42566 5.00842 3
    endloop
  endfacet
  facet normal 0.659341 0.751844 -0
    outer loop
      vertex 3.57372 3.01994 3
      vertex 3.27868 3.27868 22
      vertex 3.57372 3.01994 22
    endloop
  endfacet
  facet normal 0.659341 0.751844 0
    outer loop
      vertex 3.27868 3.27868 22
      vertex 3.57372 3.01994 3
      vertex 3.27868 3.27868 3
    endloop
  endfacet
  facet normal 0.896875 0.442283 0
    outer loop
      vertex 2.80192 3.9 22
      vertex 2.62836 4.25195 3
      vertex 2.62836 4.25195 22
    endloop
  endfacet
  facet normal 0.896875 0.442283 0
    outer loop
      vertex 2.62836 4.25195 3
      vertex 2.80192 3.9 22
      vertex 2.80192 3.9 3
    endloop
  endfacet
  facet normal 0.99786 0.0653892 0
    outer loop
      vertex 2.42566 5.00842 22
      vertex 2.4 5.4 3
      vertex 2.4 5.4 22
    endloop
  endfacet
  facet normal 0.99786 0.0653892 0
    outer loop
      vertex 2.4 5.4 3
      vertex 2.42566 5.00842 22
      vertex 2.42566 5.00842 3
    endloop
  endfacet
  facet normal 1 -0 0
    outer loop
      vertex 2.4 5.4 22
      vertex 2.4 36.6 3
      vertex 2.4 36.6 22
    endloop
  endfacet
  facet normal 1 0 0
    outer loop
      vertex 2.4 36.6 3
      vertex 2.4 5.4 22
      vertex 2.4 5.4 3
    endloop
  endfacet
  facet normal 0.980786 -0.195087 0
    outer loop
      vertex 2.42566 36.9916 22
      vertex 2.50222 37.3765 3
      vertex 2.50222 37.3765 22
    endloop
  endfacet
  facet normal 0.980786 -0.195087 0
    outer loop
      vertex 2.50222 37.3765 3
      vertex 2.42566 36.9916 22
      vertex 2.42566 36.9916 3
    endloop
  endfacet
  facet normal 0.0654906 -0.997853 0
    outer loop
      vertex 5.00842 39.5743 3
      vertex 5.4 39.6 22
      vertex 5.00842 39.5743 22
    endloop
  endfacet
  facet normal 0.0654906 -0.997853 0
    outer loop
      vertex 5.4 39.6 22
      vertex 5.00842 39.5743 3
      vertex 5.4 39.6 3
    endloop
  endfacet
  facet normal -0.997853 -0.0654873 0
    outer loop
      vertex 57.6 36.6 3
      vertex 57.5743 36.9916 22
      vertex 57.5743 36.9916 3
    endloop
  endfacet
  facet normal -0.997853 -0.0654873 0
    outer loop
      vertex 57.5743 36.9916 22
      vertex 57.6 36.6 3
      vertex 57.6 36.6 22
    endloop
  endfacet
  facet normal 0 1 0
    outer loop
      vertex 54.6 2.4 22
      vertex 32.5 2.4 20.3301
      vertex 5.4 2.4 22
    endloop
  endfacet
  facet normal 0 1 0
    outer loop
      vertex 54.6 2.4 22
      vertex 35 2.4 16
      vertex 32.5 2.4 20.3301
    endloop
  endfacet
  facet normal 0 1 -0
    outer loop
      vertex 54.6 2.4 3
      vertex 35 2.4 16
      vertex 54.6 2.4 22
    endloop
  endfacet
  facet normal 0 1 0
    outer loop
      vertex 32.5 2.4 11.6699
      vertex 54.6 2.4 3
      vertex 27.5 2.4 11.6699
    endloop
  endfacet
  facet normal 0 1 0
    outer loop
      vertex 35 2.4 16
      vertex 54.6 2.4 3
      vertex 32.5 2.4 11.6699
    endloop
  endfacet
  facet normal 0 1 -0
    outer loop
      vertex 27.5 2.4 20.3301
      vertex 5.4 2.4 22
      vertex 32.5 2.4 20.3301
    endloop
  endfacet
  facet normal 0 1 -0
    outer loop
      vertex 25 2.4 16
      vertex 5.4 2.4 22
      vertex 27.5 2.4 20.3301
    endloop
  endfacet
  facet normal 0 1 0
    outer loop
      vertex 5.4 2.4 3
      vertex 25 2.4 16
      vertex 27.5 2.4 11.6699
    endloop
  endfacet
  facet normal 0 1 0
    outer loop
      vertex 25 2.4 16
      vertex 5.4 2.4 3
      vertex 5.4 2.4 22
    endloop
  endfacet
  facet normal 0 1 0
    outer loop
      vertex 5.4 2.4 3
      vertex 27.5 2.4 11.6699
      vertex 54.6 2.4 3
    endloop
  endfacet
  facet normal 0.946928 0.321444 0
    outer loop
      vertex 2.62836 4.25195 22
      vertex 2.50222 4.62354 3
      vertex 2.50222 4.62354 22
    endloop
  endfacet
  facet normal 0.946928 0.321444 0
    outer loop
      vertex 2.50222 4.62354 3
      vertex 2.62836 4.25195 22
      vertex 2.62836 4.25195 3
    endloop
  endfacet
  facet normal 0.980784 0.195097 0
    outer loop
      vertex 2.50222 4.62354 22
      vertex 2.42566 5.00842 3
      vertex 2.42566 5.00842 22
    endloop
  endfacet
  facet normal 0.980784 0.195097 0
    outer loop
      vertex 2.42566 5.00842 3
      vertex 2.50222 4.62354 22
      vertex 2.50222 4.62354 3
    endloop
  endfacet
  facet normal 0.99786 -0.0653858 0
    outer loop
      vertex 2.4 36.6 22
      vertex 2.42566 36.9916 3
      vertex 2.42566 36.9916 22
    endloop
  endfacet
  facet normal 0.99786 -0.0653858 0
    outer loop
      vertex 2.42566 36.9916 3
      vertex 2.4 36.6 22
      vertex 2.4 36.6 3
    endloop
  endfacet
  facet normal 0.659428 -0.751768 0
    outer loop
      vertex 3.27868 38.7213 3
      vertex 3.57372 38.9801 22
      vertex 3.27868 38.7213 22
    endloop
  endfacet
  facet normal 0.659428 -0.751768 0
    outer loop
      vertex 3.57372 38.9801 22
      vertex 3.27868 38.7213 3
      vertex 3.57372 38.9801 3
    endloop
  endfacet
  facet normal 0 -1 0
    outer loop
      vertex 5.4 39.6 3
      vertex 54.6 39.6 22
      vertex 5.4 39.6 22
    endloop
  endfacet
  facet normal 0 -1 -0
    outer loop
      vertex 54.6 39.6 22
      vertex 5.4 39.6 3
      vertex 54.6 39.6 3
    endloop
  endfacet
  facet normal -1 0 0
    outer loop
      vertex 57.6 5.4 3
      vertex 57.6 36.6 22
      vertex 57.6 36.6 3
    endloop
  endfacet
  facet normal -1 -0 0
    outer loop
      vertex 57.6 36.6 22
      vertex 57.6 5.4 3
      vertex 57.6 5.4 22
    endloop
  endfacet
  facet normal -0.442334 0.89685 0
    outer loop
      vertex 56.1 2.80192 3
      vertex 55.7481 2.62836 22
      vertex 56.1 2.80192 22
    endloop
  endfacet
  facet normal -0.442334 0.89685 0
    outer loop
      vertex 55.7481 2.62836 22
      vertex 56.1 2.80192 3
      vertex 55.7481 2.62836 3
    endloop
  endfacet
  facet normal 0.0653892 0.99786 -0
    outer loop
      vertex 5.4 2.4 3
      vertex 5.00842 2.42566 22
      vertex 5.4 2.4 22
    endloop
  endfacet
  facet normal 0.0653892 0.99786 0
    outer loop
      vertex 5.00842 2.42566 22
      vertex 5.4 2.4 3
      vertex 5.00842 2.42566 3
    endloop
  endfacet
  facet normal 0.831462 0.555582 0
    outer loop
      vertex 3.01994 3.57372 22
      vertex 2.80192 3.9 3
      vertex 2.80192 3.9 22
    endloop
  endfacet
  facet normal 0.831462 0.555582 0
    outer loop
      vertex 2.80192 3.9 3
      vertex 3.01994 3.57372 22
      vertex 3.01994 3.57372 3
    endloop
  endfacet
  facet normal 0.751844 0.659341 0
    outer loop
      vertex 3.27868 3.27868 22
      vertex 3.01994 3.57372 3
      vertex 3.01994 3.57372 22
    endloop
  endfacet
  facet normal 0.751844 0.659341 0
    outer loop
      vertex 3.01994 3.57372 3
      vertex 3.27868 3.27868 22
      vertex 3.27868 3.27868 3
    endloop
  endfacet
  facet normal 0.89685 -0.442334 0
    outer loop
      vertex 2.62836 37.7481 22
      vertex 2.80192 38.1 3
      vertex 2.80192 38.1 22
    endloop
  endfacet
  facet normal 0.89685 -0.442334 0
    outer loop
      vertex 2.80192 38.1 3
      vertex 2.62836 37.7481 22
      vertex 2.62836 37.7481 3
    endloop
  endfacet
  facet normal 0.831477 -0.555558 0
    outer loop
      vertex 2.80192 38.1 22
      vertex 3.01994 38.4263 3
      vertex 3.01994 38.4263 22
    endloop
  endfacet
  facet normal 0.831477 -0.555558 0
    outer loop
      vertex 3.01994 38.4263 3
      vertex 2.80192 38.1 22
      vertex 2.80192 38.1 3
    endloop
  endfacet
  facet normal 0.751799 -0.659392 0
    outer loop
      vertex 3.01994 38.4263 22
      vertex 3.27868 38.7213 3
      vertex 3.27868 38.7213 22
    endloop
  endfacet
  facet normal 0.751799 -0.659392 0
    outer loop
      vertex 3.27868 38.7213 3
      vertex 3.01994 38.4263 22
      vertex 3.01994 38.4263 3
    endloop
  endfacet
  facet normal 0.555547 -0.831485 0
    outer loop
      vertex 3.57372 38.9801 3
      vertex 3.9 39.1981 22
      vertex 3.57372 38.9801 22
    endloop
  endfacet
  facet normal 0.555547 -0.831485 0
    outer loop
      vertex 3.9 39.1981 22
      vertex 3.57372 38.9801 3
      vertex 3.9 39.1981 3
    endloop
  endfacet
  facet normal 0.44216 -0.896936 0
    outer loop
      vertex 3.9 39.1981 3
      vertex 4.25195 39.3716 22
      vertex 3.9 39.1981 22
    endloop
  endfacet
  facet normal 0.44216 -0.896936 0
    outer loop
      vertex 4.25195 39.3716 22
      vertex 3.9 39.1981 3
      vertex 4.25195 39.3716 3
    endloop
  endfacet
  facet normal 0.19495 -0.980813 0
    outer loop
      vertex 4.62354 39.4978 3
      vertex 5.00842 39.5743 22
      vertex 4.62354 39.4978 22
    endloop
  endfacet
  facet normal 0.19495 -0.980813 0
    outer loop
      vertex 5.00842 39.5743 22
      vertex 4.62354 39.4978 3
      vertex 5.00842 39.5743 3
    endloop
  endfacet
  facet normal -0.751768 0.659428 0
    outer loop
      vertex 56.7213 3.27868 3
      vertex 56.9801 3.57372 22
      vertex 56.9801 3.57372 3
    endloop
  endfacet
  facet normal -0.751768 0.659428 0
    outer loop
      vertex 56.9801 3.57372 22
      vertex 56.7213 3.27868 3
      vertex 56.7213 3.27868 22
    endloop
  endfacet
  facet normal -0.555558 0.831477 0
    outer loop
      vertex 56.4263 3.01994 3
      vertex 56.1 2.80192 22
      vertex 56.4263 3.01994 22
    endloop
  endfacet
  facet normal -0.555558 0.831477 0
    outer loop
      vertex 56.1 2.80192 22
      vertex 56.4263 3.01994 3
      vertex 56.1 2.80192 3
    endloop
  endfacet
  facet normal 0.555582 0.831462 -0
    outer loop
      vertex 3.9 2.80192 3
      vertex 3.57372 3.01994 22
      vertex 3.9 2.80192 22
    endloop
  endfacet
  facet normal 0.555582 0.831462 0
    outer loop
      vertex 3.57372 3.01994 22
      vertex 3.9 2.80192 3
      vertex 3.57372 3.01994 3
    endloop
  endfacet
  facet normal 0.946931 -0.321437 0
    outer loop
      vertex 2.50222 37.3765 22
      vertex 2.62836 37.7481 3
      vertex 2.62836 37.7481 22
    endloop
  endfacet
  facet normal 0.946931 -0.321437 0
    outer loop
      vertex 2.62836 37.7481 3
      vertex 2.50222 37.3765 22
      vertex 2.50222 37.3765 3
    endloop
  endfacet
  facet normal 0.321582 -0.946882 0
    outer loop
      vertex 4.25195 39.3716 3
      vertex 4.62354 39.4978 22
      vertex 4.25195 39.3716 22
    endloop
  endfacet
  facet normal 0.321582 -0.946882 0
    outer loop
      vertex 4.62354 39.4978 22
      vertex 4.25195 39.3716 3
      vertex 4.62354 39.4978 3
    endloop
  endfacet
  facet normal -0.946885 -0.321574 0
    outer loop
      vertex 57.4978 37.3765 3
      vertex 57.3716 37.7481 22
      vertex 57.3716 37.7481 3
    endloop
  endfacet
  facet normal -0.946885 -0.321574 0
    outer loop
      vertex 57.3716 37.7481 22
      vertex 57.4978 37.3765 3
      vertex 57.4978 37.3765 22
    endloop
  endfacet
  facet normal 0.442283 0.896875 -0
    outer loop
      vertex 4.25195 2.62836 3
      vertex 3.9 2.80192 22
      vertex 4.25195 2.62836 22
    endloop
  endfacet
  facet normal 0.442283 0.896875 0
    outer loop
      vertex 3.9 2.80192 22
      vertex 4.25195 2.62836 3
      vertex 3.9 2.80192 3
    endloop
  endfacet
  facet normal 0.321444 0.946928 -0
    outer loop
      vertex 4.62354 2.50222 3
      vertex 4.25195 2.62836 22
      vertex 4.62354 2.50222 22
    endloop
  endfacet
  facet normal 0.321444 0.946928 0
    outer loop
      vertex 4.25195 2.62836 22
      vertex 4.62354 2.50222 3
      vertex 4.25195 2.62836 3
    endloop
  endfacet
  facet normal -0.555523 -0.831501 0
    outer loop
      vertex 56.1 39.1981 3
      vertex 56.4263 38.9801 22
      vertex 56.1 39.1981 22
    endloop
  endfacet
  facet normal -0.555523 -0.831501 -0
    outer loop
      vertex 56.4263 38.9801 22
      vertex 56.1 39.1981 3
      vertex 56.4263 38.9801 3
    endloop
  endfacet
  facet normal -0.0654873 -0.997853 0
    outer loop
      vertex 54.6 39.6 3
      vertex 54.9916 39.5743 22
      vertex 54.6 39.6 22
    endloop
  endfacet
  facet normal -0.0654873 -0.997853 -0
    outer loop
      vertex 54.9916 39.5743 22
      vertex 54.6 39.6 3
      vertex 54.9916 39.5743 3
    endloop
  endfacet
  facet normal -0.751724 -0.659478 0
    outer loop
      vertex 56.9801 38.4263 3
      vertex 56.7213 38.7213 22
      vertex 56.7213 38.7213 3
    endloop
  endfacet
  facet normal -0.751724 -0.659478 0
    outer loop
      vertex 56.7213 38.7213 22
      vertex 56.9801 38.4263 3
      vertex 56.9801 38.4263 22
    endloop
  endfacet
  facet normal -0.980815 -0.19494 0
    outer loop
      vertex 57.5743 36.9916 3
      vertex 57.4978 37.3765 22
      vertex 57.4978 37.3765 3
    endloop
  endfacet
  facet normal -0.980815 -0.19494 0
    outer loop
      vertex 57.4978 37.3765 22
      vertex 57.5743 36.9916 3
      vertex 57.5743 36.9916 22
    endloop
  endfacet
  facet normal -0.659392 0.751799 0
    outer loop
      vertex 56.7213 3.27868 3
      vertex 56.4263 3.01994 22
      vertex 56.7213 3.27868 22
    endloop
  endfacet
  facet normal -0.659392 0.751799 0
    outer loop
      vertex 56.4263 3.01994 22
      vertex 56.7213 3.27868 3
      vertex 56.4263 3.01994 3
    endloop
  endfacet
  facet normal -0.896936 0.44216 0
    outer loop
      vertex 57.1981 3.9 3
      vertex 57.3716 4.25195 22
      vertex 57.3716 4.25195 3
    endloop
  endfacet
  facet normal -0.896936 0.44216 0
    outer loop
      vertex 57.3716 4.25195 22
      vertex 57.1981 3.9 3
      vertex 57.1981 3.9 22
    endloop
  endfacet
  facet normal -0.997853 0.0654906 0
    outer loop
      vertex 57.5743 5.00842 3
      vertex 57.6 5.4 22
      vertex 57.6 5.4 3
    endloop
  endfacet
  facet normal -0.997853 0.0654906 0
    outer loop
      vertex 57.6 5.4 22
      vertex 57.5743 5.00842 3
      vertex 57.5743 5.00842 22
    endloop
  endfacet
  facet normal -0.946882 0.321582 0
    outer loop
      vertex 57.3716 4.25195 3
      vertex 57.4978 4.62354 22
      vertex 57.4978 4.62354 3
    endloop
  endfacet
  facet normal -0.946882 0.321582 0
    outer loop
      vertex 57.4978 4.62354 22
      vertex 57.3716 4.25195 3
      vertex 57.3716 4.25195 22
    endloop
  endfacet
  facet normal -0.321437 0.946931 0
    outer loop
      vertex 55.7481 2.62836 3
      vertex 55.3765 2.50222 22
      vertex 55.7481 2.62836 22
    endloop
  endfacet
  facet normal -0.321437 0.946931 0
    outer loop
      vertex 55.3765 2.50222 22
      vertex 55.7481 2.62836 3
      vertex 55.3765 2.50222 3
    endloop
  endfacet
  facet normal -0.195087 0.980786 0
    outer loop
      vertex 55.3765 2.50222 3
      vertex 54.9916 2.42566 22
      vertex 55.3765 2.50222 22
    endloop
  endfacet
  facet normal -0.195087 0.980786 0
    outer loop
      vertex 54.9916 2.42566 22
      vertex 55.3765 2.50222 3
      vertex 54.9916 2.42566 3
    endloop
  endfacet
  facet normal -0.0653858 0.99786 0
    outer loop
      vertex 54.9916 2.42566 3
      vertex 54.6 2.4 22
      vertex 54.9916 2.42566 22
    endloop
  endfacet
  facet normal -0.0653858 0.99786 0
    outer loop
      vertex 54.6 2.4 22
      vertex 54.9916 2.42566 3
      vertex 54.6 2.4 3
    endloop
  endfacet
  facet normal 0.195097 0.980784 -0
    outer loop
      vertex 5.00842 2.42566 3
      vertex 4.62354 2.50222 22
      vertex 5.00842 2.42566 22
    endloop
  endfacet
  facet normal 0.195097 0.980784 0
    outer loop
      vertex 4.62354 2.50222 22
      vertex 5.00842 2.42566 3
      vertex 4.62354 2.50222 3
    endloop
  endfacet
  facet normal -0.19494 -0.980815 0
    outer loop
      vertex 54.9916 39.5743 3
      vertex 55.3765 39.4978 22
      vertex 54.9916 39.5743 22
    endloop
  endfacet
  facet normal -0.19494 -0.980815 -0
    outer loop
      vertex 55.3765 39.4978 22
      vertex 54.9916 39.5743 3
      vertex 55.3765 39.4978 3
    endloop
  endfacet
  facet normal -0.831501 -0.555523 0
    outer loop
      vertex 57.1981 38.1 3
      vertex 56.9801 38.4263 22
      vertex 56.9801 38.4263 3
    endloop
  endfacet
  facet normal -0.831501 -0.555523 0
    outer loop
      vertex 56.9801 38.4263 22
      vertex 57.1981 38.1 3
      vertex 57.1981 38.1 22
    endloop
  endfacet
  facet normal -0.659478 -0.751724 0
    outer loop
      vertex 56.4263 38.9801 3
      vertex 56.7213 38.7213 22
      vertex 56.4263 38.9801 22
    endloop
  endfacet
  facet normal -0.659478 -0.751724 -0
    outer loop
      vertex 56.7213 38.7213 22
      vertex 56.4263 38.9801 3
      vertex 56.7213 38.7213 3
    endloop
  endfacet
  facet normal -0.896911 -0.442211 0
    outer loop
      vertex 57.3716 37.7481 3
      vertex 57.1981 38.1 22
      vertex 57.1981 38.1 3
    endloop
  endfacet
  facet normal -0.896911 -0.442211 0
    outer loop
      vertex 57.1981 38.1 22
      vertex 57.3716 37.7481 3
      vertex 57.3716 37.7481 22
    endloop
  endfacet
  facet normal -0.831485 0.555547 0
    outer loop
      vertex 56.9801 3.57372 3
      vertex 57.1981 3.9 22
      vertex 57.1981 3.9 3
    endloop
  endfacet
  facet normal -0.831485 0.555547 0
    outer loop
      vertex 57.1981 3.9 22
      vertex 56.9801 3.57372 3
      vertex 56.9801 3.57372 22
    endloop
  endfacet
  facet normal -0.980813 0.19495 0
    outer loop
      vertex 57.4978 4.62354 3
      vertex 57.5743 5.00842 22
      vertex 57.5743 5.00842 3
    endloop
  endfacet
  facet normal -0.980813 0.19495 0
    outer loop
      vertex 57.5743 5.00842 22
      vertex 57.4978 4.62354 3
      vertex 57.4978 4.62354 22
    endloop
  endfacet
  facet normal -0.321574 -0.946885 0
    outer loop
      vertex 55.3765 39.4978 3
      vertex 55.7481 39.3716 22
      vertex 55.3765 39.4978 22
    endloop
  endfacet
  facet normal -0.321574 -0.946885 -0
    outer loop
      vertex 55.7481 39.3716 22
      vertex 55.3765 39.4978 3
      vertex 55.7481 39.3716 3
    endloop
  endfacet
  facet normal -0.442211 -0.896911 0
    outer loop
      vertex 55.7481 39.3716 3
      vertex 56.1 39.1981 22
      vertex 55.7481 39.3716 22
    endloop
  endfacet
  facet normal -0.442211 -0.896911 -0
    outer loop
      vertex 56.1 39.1981 22
      vertex 55.7481 39.3716 3
      vertex 56.1 39.1981 3
    endloop
  endfacet
  facet normal 0.866024 0 -0.500002
    outer loop
      vertex 35 -0.0999994 16
      vertex 32.5 0 11.6699
      vertex 35 0 16
    endloop
  endfacet
  facet normal 0.866024 0 -0.500002
    outer loop
      vertex 32.5 0 11.6699
      vertex 35 -0.0999994 16
      vertex 32.5 -0.0999994 11.6699
    endloop
  endfacet
  facet normal 0.866024 0 -0.500002
    outer loop
      vertex 35 2.4 16
      vertex 32.5 5.9 11.6699
      vertex 35 5.9 16
    endloop
  endfacet
  facet normal 0.866024 0 -0.500002
    outer loop
      vertex 32.5 5.9 11.6699
      vertex 35 2.4 16
      vertex 32.5 2.4 11.6699
    endloop
  endfacet
  facet normal -0.866024 0 -0.500002
    outer loop
      vertex 27.5 2.4 11.6699
      vertex 25 5.9 16
      vertex 27.5 5.9 11.6699
    endloop
  endfacet
  facet normal -0.866024 -0 -0.500002
    outer loop
      vertex 25 5.9 16
      vertex 27.5 2.4 11.6699
      vertex 25 2.4 16
    endloop
  endfacet
  facet normal -0.866024 0 -0.500002
    outer loop
      vertex 27.5 -0.0999994 11.6699
      vertex 25 0 16
      vertex 27.5 0 11.6699
    endloop
  endfacet
  facet normal -0.866024 -0 -0.500002
    outer loop
      vertex 25 0 16
      vertex 27.5 -0.0999994 11.6699
      vertex 25 -0.0999994 16
    endloop
  endfacet
  facet normal 0 0 -1
    outer loop
      vertex 27.5 -0.0999994 11.6699
      vertex 32.5 0 11.6699
      vertex 32.5 -0.0999994 11.6699
    endloop
  endfacet
  facet normal -0 0 -1
    outer loop
      vertex 32.5 0 11.6699
      vertex 27.5 -0.0999994 11.6699
      vertex 27.5 0 11.6699
    endloop
  endfacet
  facet normal 0 0 -1
    outer loop
      vertex 27.5 2.4 11.6699
      vertex 32.5 5.9 11.6699
      vertex 32.5 2.4 11.6699
    endloop
  endfacet
  facet normal -0 0 -1
    outer loop
      vertex 32.5 5.9 11.6699
      vertex 27.5 2.4 11.6699
      vertex 27.5 5.9 11.6699
    endloop
  endfacet
  facet normal 0 1 0
    outer loop
      vertex 35 5.9 16
      vertex 27.5 5.9 20.3301
      vertex 32.5 5.9 20.3301
    endloop
  endfacet
  facet normal 0 1 0
    outer loop
      vertex 35 5.9 16
      vertex 25 5.9 16
      vertex 27.5 5.9 20.3301
    endloop
  endfacet
  facet normal 0 1 -0
    outer loop
      vertex 32.5 5.9 11.6699
      vertex 25 5.9 16
      vertex 35 5.9 16
    endloop
  endfacet
  facet normal 0 1 0
    outer loop
      vertex 25 5.9 16
      vertex 32.5 5.9 11.6699
      vertex 27.5 5.9 11.6699
    endloop
  endfacet
  facet normal -0.866024 0 0.500002
    outer loop
      vertex 25 2.4 16
      vertex 27.5 5.9 20.3301
      vertex 25 5.9 16
    endloop
  endfacet
  facet normal -0.866024 0 0.500002
    outer loop
      vertex 27.5 5.9 20.3301
      vertex 25 2.4 16
      vertex 27.5 2.4 20.3301
    endloop
  endfacet
  facet normal -0.866024 0 0.500002
    outer loop
      vertex 25 -0.0999994 16
      vertex 27.5 0 20.3301
      vertex 25 0 16
    endloop
  endfacet
  facet normal -0.866024 0 0.500002
    outer loop
      vertex 27.5 0 20.3301
      vertex 25 -0.0999994 16
      vertex 27.5 -0.0999994 20.3301
    endloop
  endfacet
  facet normal 0 -1 0
    outer loop
      vertex 25 -0.0999994 16
      vertex 32.5 -0.0999994 20.3301
      vertex 27.5 -0.0999994 20.3301
    endloop
  endfacet
  facet normal 0 -1 0
    outer loop
      vertex 25 -0.0999994 16
      vertex 35 -0.0999994 16
      vertex 32.5 -0.0999994 20.3301
    endloop
  endfacet
  facet normal 0 -1 0
    outer loop
      vertex 27.5 -0.0999994 11.6699
      vertex 35 -0.0999994 16
      vertex 25 -0.0999994 16
    endloop
  endfacet
  facet normal 0 -1 0
    outer loop
      vertex 35 -0.0999994 16
      vertex 27.5 -0.0999994 11.6699
      vertex 32.5 -0.0999994 11.6699
    endloop
  endfacet
  facet normal -0 0 1
    outer loop
      vertex 27.5 0 20.3301
      vertex 32.5 -0.0999994 20.3301
      vertex 32.5 0 20.3301
    endloop
  endfacet
  facet normal 0 0 1
    outer loop
      vertex 32.5 -0.0999994 20.3301
      vertex 27.5 0 20.3301
      vertex 27.5 -0.0999994 20.3301
    endloop
  endfacet
  facet normal -0 0 1
    outer loop
      vertex 27.5 5.9 20.3301
      vertex 32.5 2.4 20.3301
      vertex 32.5 5.9 20.3301
    endloop
  endfacet
  facet normal 0 0 1
    outer loop
      vertex 32.5 2.4 20.3301
      vertex 27.5 5.9 20.3301
      vertex 27.5 2.4 20.3301
    endloop
  endfacet
  facet normal 0.866024 -0 0.500002
    outer loop
      vertex 32.5 -0.0999994 20.3301
      vertex 35 0 16
      vertex 32.5 0 20.3301
    endloop
  endfacet
  facet normal 0.866024 0 0.500002
    outer loop
      vertex 35 0 16
      vertex 32.5 -0.0999994 20.3301
      vertex 35 -0.0999994 16
    endloop
  endfacet
  facet normal 0.866024 -0 0.500002
    outer loop
      vertex 32.5 2.4 20.3301
      vertex 35 5.9 16
      vertex 32.5 5.9 20.3301
    endloop
  endfacet
  facet normal 0.866024 0 0.500002
    outer loop
      vertex 35 5.9 16
      vertex 32.5 2.4 20.3301
      vertex 35 2.4 16
    endloop
  endfacet
endsolid OpenSCAD_Model
